# xmcd
#
# Track frame offsets:
# 150
# 12793
# 35847
# 54779
# 68648
# 86267
#
# Disc length: 1364 seconds
#
#
# Revision: 2
# Processed by: cddbd v1.5.1PL2 Copyright (c) Steve Scherf et al.
# Submitted via: FreeRIP 2.945 
#
DISCID=3c055206
DTITLE=Chuck Beattie - A Sample Of The Blues
DYEAR=2002
DGENRE=Blues
TTITLE0=Messin' With The Kid
TTITLE1=The Thrill Is Over
TTITLE2=She Caught The Katy
TTITLE3=Caledonia
TTITLE4=Hey Bartender
TTITLE5=She Just Wanna Dance
EXTD=
EXTT0=
EXTT1=
EXTT2=
EXTT3=
EXTT4=
EXTT5=
PLAYORDER=
